<svg preserveAspectRatio="none" width="100%" height="100%" overflow="visible" style="display: block;" viewBox="0 0 512 512" fill="none" xmlns="http://www.w3.org/2000/svg">
<g id="Logo Black">
<path id="Ellipse 3 (Stroke)" fill-rule="evenodd" clip-rule="evenodd" d="M321.506 213.889C321.506 222.503 328.489 229.486 337.102 229.486L337.102 213.889L337.102 198.293C328.489 198.293 321.506 205.276 321.506 213.889ZM259.119 213.889C259.119 256.958 294.033 291.873 337.102 291.873L415.086 291.873L415.086 229.486L337.102 229.486L337.102 198.293L415.086 198.293L415.086 135.906L337.102 135.906C294.033 135.906 259.119 170.82 259.119 213.889Z" fill="var(--fill-0, #1E1F21)"/>
<path id="Ellipse 3 (Stroke)_2" fill-rule="evenodd" clip-rule="evenodd" d="M337.103 360.498C328.489 360.498 321.506 367.481 321.506 376.094L337.103 376.094L352.699 376.094C352.699 367.481 345.716 360.498 337.103 360.498ZM337.103 298.111C294.034 298.111 259.119 333.025 259.119 376.094L259.119 454.078L321.506 454.078L321.506 376.094L352.699 376.094L352.699 454.078L415.086 454.078L415.086 376.094C415.086 333.025 380.171 298.111 337.103 298.111Z" fill="var(--fill-0, #1E1F21)"/>
<path id="Ellipse 3 (Stroke)_3" fill-rule="evenodd" clip-rule="evenodd" d="M190.494 376.094C190.494 367.48 183.511 360.498 174.898 360.498L174.898 376.094L174.898 391.691C183.511 391.691 190.494 384.708 190.494 376.094ZM252.881 376.094C252.881 333.025 217.967 298.111 174.898 298.111L96.9143 298.111L96.9143 360.498L174.898 360.498L174.898 391.691L96.9143 391.691L96.9143 454.077L174.898 454.077C217.967 454.077 252.881 419.163 252.881 376.094Z" fill="var(--fill-0, #1E1F21)"/>
<path id="Ellipse 3 (Stroke)_4" fill-rule="evenodd" clip-rule="evenodd" d="M174.897 229.486C183.511 229.486 190.494 222.503 190.494 213.889L174.897 213.889H159.301C159.301 222.503 166.284 229.486 174.897 229.486ZM174.897 291.873C217.966 291.873 252.881 256.958 252.881 213.889L252.881 57.9228L190.494 57.9228L190.494 213.889L159.301 213.889L159.301 57.9228L96.9143 57.9228L96.9143 213.889C96.9143 256.958 131.829 291.873 174.897 291.873Z" fill="var(--fill-0, #1E1F21)"/>
</g>
</svg>
